HIERARCHY
ROOT Hips
{
	OFFSET 0.00000 0.00000 0.00000
	CHANNELS 6 Xposition Yposition Zposition Zrotation Yrotation Xrotation 
	JOINT LHipJoint
	{
		OFFSET 0 0 0
		CHANNELS 3 Zrotation Yrotation Xrotation
		JOINT LeftHip
		{
			OFFSET 1.46561 -1.72757 0.83774
			CHANNELS 3 Zrotation Yrotation Xrotation
			JOINT LeftKnee
			{
				OFFSET 2.48915 -6.83890 0.00000
				CHANNELS 3 Zrotation Yrotation Xrotation
				JOINT LeftAnkle
				{
					OFFSET 2.60555 -7.15868 0.00000
					CHANNELS 3 Zrotation Yrotation Xrotation
					JOINT LeftToe
					{
						OFFSET 0.19248 -0.52884 2.26738
						CHANNELS 3 Zrotation Yrotation Xrotation
						End Site
						{
							OFFSET 0.00000 -0.00000 1.17015
						}
					}
				}
			}
		}
	}
	JOINT RHipJoint
	{
		OFFSET 0 0 0
		CHANNELS 3 Zrotation Yrotation Xrotation
		JOINT RightHip
		{
			OFFSET -1.46918 -1.72757 0.83774
			CHANNELS 3 Zrotation Yrotation Xrotation
			JOINT RightKnee
			{
				OFFSET -2.49034 -6.84216 0.00000
				CHANNELS 3 Zrotation Yrotation Xrotation
				JOINT RightAnkle
				{
					OFFSET -2.65971 -7.30750 0.00000
					CHANNELS 3 Zrotation Yrotation Xrotation
					JOINT RightToe
					{
						OFFSET -0.19227 -0.52827 2.30785
						CHANNELS 3 Zrotation Yrotation Xrotation
						End Site
						{
							OFFSET -0.00000 -0.00000 1.18972
						}
					}
				}
			}
		}
	}
	JOINT lowerback
	{
		OFFSET 0 0 0
		CHANNELS 3 Zrotation Yrotation Xrotation
		JOINT Chest
		{
			OFFSET 0.02432 2.19909 -0.28000
			CHANNELS 3 Zrotation Yrotation Xrotation
			JOINT Chest2
			{
				OFFSET 0.03714 2.21816 -0.15261
				CHANNELS 3 Zrotation Yrotation Xrotation
				JOINT lowerneck
				{
					OFFSET 0 0 0
					CHANNELS 3 Zrotation Yrotation Xrotation
					JOINT Neck
					{
						OFFSET -0.01896 1.56165 0.21681
						CHANNELS 3 Zrotation Yrotation Xrotation
						JOINT Head
						{
							OFFSET 0.02744 1.56009 0.06764
							CHANNELS 3 Zrotation Yrotation Xrotation
							End Site
							{
								OFFSET 0.01212 1.60574 0.00298
							}
						}
					}
				}
				JOINT LeftCollar
				{
					OFFSET 0 0 0
					CHANNELS 3 Zrotation Yrotation Xrotation
					JOINT LeftShoulder
					{
						OFFSET 3.05595 1.48048 -0.60794
CHANNELS 3 Zrotation Xrotation Yrotation
						JOINT LeftElbow
						{
OFFSET 0 -5.206070 -0.000000
CHANNELS 3 Zrotation Xrotation Yrotation
							JOINT LeftWrist
							{
OFFSET 0 -3.399610 0.000000
CHANNELS 3 Zrotation Xrotation Yrotation
								JOINT lhand
								{
									OFFSET 0 0 0
CHANNELS 3 Zrotation Xrotation Yrotation
									JOINT LFingers
									{
OFFSET 0 -0.519690 0.000000
CHANNELS 3 Zrotation Xrotation Yrotation
										End Site
										{
OFFSET 0 -0.418990 0.000000
										}
									}
								}
								JOINT LThumb
								{
OFFSET 0 0.000000 0.000000
CHANNELS 3 Zrotation Xrotation Yrotation
									End Site
									{
OFFSET 0 -0.425390 0.425390
									}
								}
							}
						}
					}
				}
				JOINT RightCollar
				{
					OFFSET 0 0 0
					CHANNELS 3 Zrotation Yrotation Xrotation
					JOINT RightShoulder
					{
						OFFSET -2.99052 1.57608 -0.69102
CHANNELS 3 Zrotation Xrotation Yrotation
						JOINT RightElbow
						{
OFFSET 0 -5.322140 0.000000
CHANNELS 3 Zrotation Xrotation Yrotation
							JOINT RightWrist
							{
OFFSET 0 -3.512080 0.000000
CHANNELS 3 Zrotation Xrotation Yrotation
								JOINT rhand
								{
									OFFSET 0 0 0
CHANNELS 3 Zrotation Xrotation Yrotation
									JOINT RFingers
									{
OFFSET 0 -0.586680 0.000000
CHANNELS 3 Zrotation Xrotation Yrotation
										End Site
										{
OFFSET 0 -0.473000 0.000000
										}
									}
								}
								JOINT RThumb
								{
OFFSET 0 0.000000 0.000000
CHANNELS 3 Zrotation Xrotation Yrotation
									End Site
									{
OFFSET 0 -0.480220 0.480220
									}
								}
							}
						}
					}
				}
			}
		}
	}
}
MOTION
Frames: 8
Frame Time: 0.008333333333333333
0.173600 17.546700 -14.380900 -1.310200 -0.375500 9.073200 0.000000 0.000000 0.000000 -17.480400 -0.152300 -21.662200 1.588500 7.950400 22.563500 0.348800 0.469200 -11.335000 0.069400 1.699700 4.676400 0.000000 0.000000 0.000000 18.674300 4.183500 -21.527200 -1.967800 -8.798800 25.167800 -0.519800 1.098200 -13.284300 -0.259400 -3.276900 9.050600 -0.306500 -0.074800 2.573900 1.540300 -0.163300 6.543600 1.764700 -0.142600 5.331100 -1.219000 0.651300 -11.629500 0.365700 1.144800 34.897400 0.531200 0.383200 13.750600 0.000000 0.000000 0.000000 3.964700 -2.414600 -31.599200 15.063300 -24.234200 3.251900 26.545400 -16.311400 3.577200 0.000000 0.000000 0.000000 -7.125000 0.000000 0.000000 -0.057300 25.982300 -0.026400 0.000000 0.000000 0.000000 -3.228400 1.878200 17.405200 -20.490000 -31.228200 -5.783200 -23.250400 28.941200 25.916800 0.000000 0.000000 0.000000 7.125000 0.000000 -0.000000 7.380900 57.701300 -2.303300
0.174676 17.546286 -14.380155 -1.317735 -0.403157 9.072786 0.000000 0.000000 0.000000 -17.478247 -0.129032 -21.672633 1.590984 7.956445 22.581883 0.349462 0.469531 -11.346096 0.069897 1.706076 4.693955 0.000000 0.000000 0.000000 18.677612 4.194099 -21.530512 -1.970201 -8.803851 25.183533 -0.520462 1.114761 -13.288275 -0.258406 -3.270524 9.032714 -0.293748 -0.064698 2.562887 1.542122 -0.150134 6.545753 1.759732 -0.135562 5.339132 -1.193993 0.649230 -11.668253 0.346241 1.142564 34.905929 0.518945 0.382786 13.763352 0.000000 0.000000 0.000000 3.971821 -2.436543 -31.617169 15.083090 -24.261774 3.260015 26.430881 -16.185288 3.179986 0.000000 0.000000 0.000000 -7.125000 0.000000 0.000000 -0.135964 26.429445 -0.061095 0.000000 0.000000 0.000000 -3.234031 1.877455 17.415385 -20.497038 -31.236480 -5.786843 -23.239470 28.914703 25.860741 0.000000 0.000000 0.000000 7.125000 0.000000 0.000000 7.367651 57.640935 -2.288478
0.175490 17.545478 -14.379606 -1.328879 -0.414805 9.058266 0.000000 0.000000 0.000000 -17.465728 -0.132139 -21.660038 1.593337 7.962096 22.599019 0.349206 0.489414 -11.350565 0.068688 1.690604 4.651345 0.000000 0.000000 0.000000 18.685976 4.218804 -21.511320 -1.972275 -8.808115 25.196838 -0.521256 1.099370 -13.302616 -0.258922 -3.273596 9.041335 -0.282702 -0.063322 2.566177 1.547355 -0.148647 6.549415 1.759028 -0.134428 5.341062 -1.188997 0.647947 -11.672823 0.342987 1.140394 34.903173 0.516466 0.382044 13.763244 0.000000 0.000000 0.000000 3.976384 -2.437295 -31.626149 15.057610 -24.226297 3.249562 26.521588 -16.257514 3.423316 0.000000 0.000000 0.000000 -7.125000 0.000000 0.000000 -0.072191 26.154822 -0.032674 0.000000 0.000000 0.000000 -3.239005 1.860701 17.419206 -20.484263 -31.221338 -5.780252 -23.215286 28.909462 25.862353 0.000000 0.000000 0.000000 7.125000 0.000000 0.000000 7.394621 57.637192 -2.296226
0.176429 17.544858 -14.378771 -1.330075 -0.418723 9.046875 0.000000 0.000000 0.000000 -17.466323 -0.134025 -21.650751 1.595559 7.967402 22.615102 0.349823 0.497040 -11.363852 0.068436 1.687464 4.642689 0.000000 0.000000 0.000000 18.683513 4.224790 -21.500222 -1.974310 -8.812318 25.209943 -0.522036 1.096714 -13.313718 -0.259252 -3.275706 9.047316 -0.278542 -0.065152 2.563193 1.550481 -0.151333 6.551826 1.759926 -0.135714 5.345412 -1.187406 0.648420 -11.677487 0.345094 1.139887 34.908449 0.517033 0.382233 13.766690 0.000000 0.000000 0.000000 3.978145 -2.442030 -31.621686 15.043020 -24.205959 3.243587 26.528296 -16.246985 3.481683 0.000000 0.000000 0.000000 -7.125000 0.000000 0.000000 -0.068157 26.089480 -0.031139 0.000000 0.000000 0.000000 -3.240564 1.847643 17.415162 -20.480964 -31.217438 -5.778579 -23.183611 28.914006 25.904497 0.000000 0.000000 0.000000 7.125000 0.000000 0.000000 7.448011 57.673705 -2.319523
0.177506 17.544413 -14.377757 -1.326094 -0.421910 9.039116 0.000000 0.000000 0.000000 -17.474699 -0.131444 -21.646353 1.597743 7.972536 22.630732 0.350950 0.497035 -11.381545 0.068806 1.692470 4.656428 0.000000 0.000000 0.000000 18.675164 4.220098 -21.496222 -1.976287 -8.816436 25.222795 -0.522781 1.104525 -13.321309 -0.258857 -3.273346 9.040775 -0.277395 -0.066762 2.555277 1.552318 -0.153656 6.553318 1.761199 -0.136931 5.351617 -1.186193 0.648807 -11.686741 0.349241 1.138770 34.918067 0.518443 0.382332 13.773055 0.000000 0.000000 0.000000 3.978924 -2.450886 -31.616185 15.040098 -24.201899 3.242408 26.475995 -16.179582 3.371796 0.000000 0.000000 0.000000 -7.125000 0.000000 0.000000 -0.105416 26.213924 -0.047995 0.000000 0.000000 0.000000 -3.241255 1.839441 17.408963 -20.485057 -31.222294 -5.780713 -23.155731 28.918981 25.951210 0.000000 0.000000 0.000000 7.125000 0.000000 0.000000 7.499383 57.715754 -2.343233
0.178568 17.543902 -14.376860 -1.326384 -0.427589 9.029331 0.000000 0.000000 0.000000 -17.477391 -0.131016 -21.638799 1.599880 7.977487 22.645847 0.351570 0.504692 -11.393767 0.068530 1.689303 4.647632 0.000000 0.000000 0.000000 18.671425 4.223793 -21.487570 -1.978123 -8.820273 25.234804 -0.523512 1.104744 -13.330157 -0.257918 -3.267422 9.024190 -0.273571 -0.067082 2.551027 1.555659 -0.154280 6.555152 1.762566 -0.137140 5.356059 -1.188790 0.647107 -11.692040 0.356433 1.134446 34.921594 0.521197 0.380977 13.775740 0.000000 0.000000 0.000000 3.980496 -2.454810 -31.622430 15.029831 -24.187686 3.238213 26.490640 -16.179719 3.404272 0.000000 0.000000 0.000000 -7.125000 0.000000 0.000000 -0.095020 26.177212 -0.043371 0.000000 0.000000 0.000000 -3.244263 1.830198 17.406143 -20.484258 -31.221344 -5.780272 -23.140157 28.920315 25.976422 0.000000 0.000000 0.000000 7.125000 0.000000 0.000000 7.527698 57.738254 -2.356204
0.179562 17.543322 -14.376032 -1.326881 -0.431067 9.019477 0.000000 0.000000 0.000000 -17.480289 -0.130519 -21.629939 1.601537 7.981545 22.657937 0.351984 0.511730 -11.404200 0.068116 1.684003 4.633058 0.000000 0.000000 0.000000 18.668030 4.226111 -21.479124 -1.980027 -8.824248 25.247224 -0.524175 1.104413 -13.339348 -0.256841 -3.260466 9.004649 -0.269265 -0.068159 2.547052 1.559551 -0.155937 6.556643 1.764140 -0.137968 5.359951 -1.196408 0.644789 -11.692868 0.368440 1.128816 34.923333 0.526497 0.379073 13.776568 0.000000 0.000000 0.000000 3.981656 -2.456052 -31.630876 15.019977 -24.174023 3.234155 26.518628 -16.196362 3.467286 0.000000 0.000000 0.000000 -7.125000 0.000000 0.000000 -0.075064 26.105834 -0.034346 0.000000 0.000000 0.000000 -3.246995 1.821917 17.401671 -20.484010 -31.221013 -5.780106 -23.131049 28.924538 26.005487 0.000000 0.000000 0.000000 7.125000 0.000000 0.000000 7.550718 57.766325 -2.368624
0.180715 17.542822 -14.375124 -1.327856 -0.434067 9.010181 0.000000 0.000000 0.000000 -17.483267 -0.128191 -21.622831 1.603272 7.985522 22.670186 0.352557 0.516539 -11.414315 0.067622 1.677987 4.616573 0.000000 0.000000 0.000000 18.665192 4.226598 -21.471713 -1.981772 -8.827983 25.258689 -0.524837 1.105196 -13.347345 -0.255685 -3.253113 8.984151 -0.264800 -0.069235 2.543237 1.564159 -0.157752 6.557815 1.766350 -0.138717 5.363365 -1.206973 0.642152 -11.693696 0.383712 1.122229 34.924833 0.533469 0.376850 13.777237 0.000000 0.000000 0.000000 3.982019 -2.455463 -31.640278 15.015618 -24.167846 3.232328 26.539608 -16.212210 3.512144 0.000000 0.000000 0.000000 -7.125000 0.000000 0.000000 -0.060205 26.055161 -0.027629 0.000000 0.000000 0.000000 -3.251082 1.815229 17.397120 -20.485832 -31.223230 -5.781056 -23.130302 28.926691 26.028499 0.000000 0.000000 0.000000 7.125000 0.000000 0.000000 7.561952 57.789856 -2.376426
